<svg xmlns="http://www.w3.org/2000/svg" data-name="Layer 1" viewBox="0 0 64 80" x="0px" y="0px"><title>x</title><circle cx="37.31" cy="15.69" r="3.29"/><path d="M42.05,19.23a.87.87,0,0,0-1.2,0,.81.81,0,0,0-.26.6.86.86,0,0,0,.25.61l.84.83a.84.84,0,0,0,.6.25.88.88,0,0,0,.61-.25.85.85,0,0,0,0-1.21Z"/><path d="M37.31,8.08a.86.86,0,0,0-.86.86v1.17a.86.86,0,1,0,1.71,0V8.94A.86.86,0,0,0,37.31,8.08Z"/><path d="M41.45,12.4a.84.84,0,0,0,.6-.25l.84-.83a.86.86,0,0,0-1.21-1.21l-.83.83a.85.85,0,0,0,0,1.21A.88.88,0,0,0,41.45,12.4Z"/><path d="M44.06,14.83H42.88a.86.86,0,0,0,0,1.72h1.18a.86.86,0,0,0,0-1.72Z"/><path d="M37.31,20.41a.85.85,0,0,0-.86.86v1.17a.86.86,0,1,0,1.71,0V21.27A.85.85,0,0,0,37.31,20.41Z"/><path d="M32.56,19.23l-.83.83a.86.86,0,0,0,.6,1.46.88.88,0,0,0,.61-.25l.83-.83a.86.86,0,0,0,.25-.61.84.84,0,0,0-.25-.6A.88.88,0,0,0,32.56,19.23Z"/><path d="M32.59,15.69a.87.87,0,0,0-.86-.86H30.56a.86.86,0,1,0,0,1.72h1.17A.87.87,0,0,0,32.59,15.69Z"/><path d="M32.94,10.11h0a.86.86,0,0,0-1.21,0,.85.85,0,0,0,0,1.21l.83.83a.84.84,0,0,0,.6.25.86.86,0,0,0,.61-.25.84.84,0,0,0,.25-.6.86.86,0,0,0-.25-.61Z"/><path d="M15.18,15.18a.2.2,0,0,1,0,.08h0c-5.45,0-6,4.21-5.4,7.48,0,0,.59-2.71,4.26-5.37-.91,1.57-1.2,3.8,1,6.61l1.24-6.52h0a55.64,55.64,0,0,1,4.11,13.37l2.6-3.2a48.22,48.22,0,0,0-4.52-11.15l5.59,4c-.39-4.43-3-5.55-5-5.72,4.83-.77,7.3,0,7.3,0-1.82-2.79-4.8-4.6-8.74-.8a16.81,16.81,0,0,1,5.22-6c-4.17-.35-6.84,1.61-6.54,5.78,0,.24,0,.49.08.75a8.7,8.7,0,0,0-.71-.84c-2.58-2.66-5.64-2.11-8.27.84A16.73,16.73,0,0,1,15.18,15.18Z"/><path d="M49.38,34.87A14.28,14.28,0,1,0,63.66,49.15,14.3,14.3,0,0,0,49.38,34.87Zm0,24.79A10.51,10.51,0,1,1,59.89,49.15,10.52,10.52,0,0,1,49.38,59.66Z"/><path d="M32.12,49.15c0-.36,0-.71.05-1.06H5.36a.88.88,0,0,1-.87-.87V5.59a.88.88,0,0,1,.87-.87H47a.88.88,0,0,1,.87.87V32c.5,0,1-.08,1.52-.08a17.5,17.5,0,0,1,2.63.22V5.59a5,5,0,0,0-5-5H5.36a5,5,0,0,0-5,5V47.22a5,5,0,0,0,4.15,5,5,5,0,0,0,.87.07H32.41A17.41,17.41,0,0,1,32.12,49.15Z"/><path d="M39.72,34.85l-.92-1.54a1.56,1.56,0,0,0-1.08-.45,1.58,1.58,0,0,0-1.09.45l-2.21,2.21L27.26,26.7a1.53,1.53,0,0,0-2.17,0l-7.16,8.82-2.21-2.21a1.56,1.56,0,0,0-1.08-.45,1.58,1.58,0,0,0-1.09.45l-5.89,9.9h0a1,1,0,0,0,.72,1.66H32.68A17.3,17.3,0,0,1,39.72,34.85Z"/><path d="M54.25,47.89l-3.7-5.46a1.41,1.41,0,0,0-2.34,0l-3.69,5.46a1.41,1.41,0,0,0,1.17,2.2h1.65v4.3a2.08,2.08,0,0,0,1.94,2.1,2,2,0,0,0,2.14-2V50.09h1.65A1.41,1.41,0,0,0,54.25,47.89Z"/></svg>