<svg xmlns="http://www.w3.org/2000/svg" xmlns:xlink="http://www.w3.org/1999/xlink" version="1.1" x="0px" y="0px" viewBox="0 0 32 40" style="enable-background:new 0 0 32 32;" xml:space="preserve"><g><path d="M15,21c-0.233,0-0.468-0.081-0.658-0.247c-0.416-0.364-0.458-0.996-0.094-1.411l7-8c0.365-0.417,0.996-0.458,1.411-0.094   c0.416,0.364,0.458,0.995,0.095,1.411l-7,8C15.555,20.885,15.278,21,15,21z"/><path d="M15,21c-0.256,0-0.512-0.098-0.707-0.293l-4-4c-0.391-0.391-0.391-1.023,0-1.414s1.023-0.391,1.414,0l4,4   c0.391,0.391,0.391,1.023,0,1.414C15.512,20.902,15.256,21,15,21z"/><path d="M16,32c-1.323,0-2.522-0.724-3.171-1.9c-0.033-0.045-0.062-0.094-0.088-0.145c-0.198-0.4-0.507-0.901-0.852-1.013   c-0.27-0.089-0.685,0.015-1.235,0.303c-0.054,0.028-0.109,0.051-0.165,0.068c-1.207,0.559-2.593,0.421-3.661-0.378   c-1.058-0.79-1.608-2.087-1.461-3.419c-0.001-0.055,0.002-0.11,0.011-0.167c0.201-1.305-0.055-1.673-1.303-1.875   c-0.06-0.01-0.119-0.025-0.175-0.045c-1.288-0.275-2.322-1.216-2.726-2.494c-0.401-1.269-0.104-2.644,0.773-3.634   c0.032-0.048,0.069-0.094,0.11-0.136c0.901-0.926,0.901-1.406,0-2.332c-0.042-0.043-0.08-0.089-0.112-0.138   c-0.875-0.99-1.172-2.364-0.771-3.632c0.404-1.278,1.44-2.219,2.729-2.493c0.055-0.02,0.112-0.035,0.171-0.044   c1.248-0.204,1.503-0.572,1.303-1.877C5.37,6.593,5.366,6.537,5.367,6.48C5.221,5.15,5.771,3.854,6.829,3.064   c1.07-0.8,2.46-0.937,3.667-0.375c0.054,0.017,0.107,0.04,0.159,0.066c0.55,0.288,0.965,0.392,1.235,0.303   c0.345-0.112,0.654-0.612,0.852-1.013c0.026-0.052,0.056-0.101,0.089-0.147C13.48,0.723,14.678,0,16,0   c1.324,0,2.525,0.726,3.174,1.906c0.031,0.043,0.06,0.09,0.084,0.139c0.199,0.4,0.508,0.901,0.854,1.013   c0.267,0.088,0.684-0.014,1.235-0.303c0.052-0.027,0.106-0.05,0.161-0.067c1.207-0.562,2.593-0.423,3.664,0.375   c1.057,0.79,1.606,2.085,1.462,3.416c0.001,0.056-0.003,0.113-0.012,0.17c-0.201,1.305,0.055,1.673,1.303,1.876   c0.06,0.01,0.117,0.024,0.174,0.044c1.288,0.275,2.323,1.215,2.727,2.493c0.4,1.27,0.104,2.646-0.774,3.636   c-0.032,0.047-0.068,0.092-0.109,0.134c-0.9,0.926-0.9,1.406,0,2.332c0.041,0.043,0.078,0.088,0.111,0.136   c0.876,0.99,1.173,2.365,0.772,3.634c-0.403,1.278-1.439,2.22-2.729,2.494c-0.055,0.021-0.112,0.035-0.172,0.045   c-1.248,0.202-1.503,0.57-1.302,1.875c0.009,0.058,0.013,0.116,0.012,0.174c0.145,1.33-0.405,2.624-1.462,3.412   c-1.068,0.801-2.454,0.938-3.664,0.377c-0.055-0.018-0.109-0.04-0.161-0.067c-0.552-0.289-0.971-0.391-1.235-0.303   c-0.346,0.111-0.654,0.612-0.854,1.013c-0.024,0.05-0.053,0.097-0.085,0.142C18.523,31.275,17.323,32,16,32z M14.457,28.916   c0.031,0.044,0.059,0.09,0.083,0.139C14.826,29.638,15.386,30,16,30s1.174-0.362,1.461-0.945c0.023-0.048,0.051-0.093,0.081-0.136   c0.529-1.01,1.169-1.625,1.951-1.879c0.776-0.252,1.634-0.136,2.626,0.354c0.052,0.017,0.104,0.039,0.153,0.065   c0.556,0.293,1.207,0.243,1.702-0.126c0.51-0.381,0.762-1.026,0.658-1.686c-0.009-0.056-0.013-0.111-0.012-0.166   c-0.286-2.215,0.658-3.543,2.81-3.952c0.052-0.018,0.106-0.031,0.162-0.04c0.624-0.1,1.131-0.543,1.324-1.156   c0.197-0.624,0.035-1.303-0.423-1.771c-0.039-0.04-0.075-0.083-0.106-0.129c-1.493-1.616-1.492-3.253,0.002-4.869   c0.03-0.045,0.065-0.087,0.104-0.127c0.458-0.468,0.62-1.147,0.423-1.772c-0.193-0.613-0.7-1.056-1.323-1.155   c-0.058-0.009-0.113-0.023-0.166-0.041c-2.149-0.41-3.093-1.739-2.807-3.955c0-0.054,0.004-0.108,0.012-0.162   c0.104-0.66-0.148-1.306-0.658-1.687c-0.496-0.37-1.147-0.419-1.702-0.125c-0.05,0.026-0.101,0.048-0.153,0.065   c-0.993,0.488-1.854,0.605-2.626,0.354C18.71,4.707,18.07,4.09,17.54,3.079c-0.029-0.042-0.056-0.086-0.079-0.133   C17.174,2.362,16.614,2,16,2s-1.174,0.362-1.46,0.945c-0.024,0.049-0.053,0.096-0.084,0.141c-0.529,1.007-1.168,1.621-1.949,1.875   c-0.771,0.25-1.633,0.135-2.628-0.356C9.828,4.588,9.777,4.566,9.728,4.541C9.173,4.248,8.521,4.297,8.026,4.666   c-0.51,0.381-0.763,1.028-0.659,1.687C7.375,6.406,7.379,6.46,7.379,6.514C7.665,8.73,6.721,10.06,4.57,10.47   c-0.053,0.018-0.107,0.032-0.164,0.041c-0.623,0.1-1.13,0.542-1.324,1.156c-0.197,0.624-0.035,1.303,0.424,1.771   c0.04,0.041,0.076,0.084,0.108,0.131c1.49,1.615,1.49,3.25-0.002,4.865c-0.031,0.046-0.066,0.089-0.106,0.129   c-0.458,0.469-0.621,1.147-0.424,1.771c0.194,0.614,0.701,1.058,1.325,1.157c0.057,0.009,0.112,0.022,0.165,0.041   c2.15,0.409,3.094,1.739,2.806,3.957c0,0.053-0.003,0.106-0.012,0.16c-0.104,0.658,0.149,1.305,0.659,1.686   c0.496,0.37,1.147,0.42,1.703,0.125c0.05-0.026,0.103-0.048,0.156-0.065c0.992-0.489,1.851-0.605,2.623-0.354   C13.288,27.293,13.927,27.908,14.457,28.916z"/></g><text x="0" y="47" fill="#000000" font-size="5px" font-weight="bold" font-family="'Helvetica Neue', Helvetica, Arial-Unicode, Arial, Sans-serif">Created by ✦ Shmidt Sergey ✦</text><text x="0" y="52" fill="#000000" font-size="5px" font-weight="bold" font-family="'Helvetica Neue', Helvetica, Arial-Unicode, Arial, Sans-serif">from the Noun Project</text></svg>