<?xml version="1.0" standalone="no"?>
<!DOCTYPE svg PUBLIC "-//W3C//DTD SVG 20010904//EN"
 "http://www.w3.org/TR/2001/REC-SVG-20010904/DTD/svg10.dtd">
<svg version="1.0" xmlns="http://www.w3.org/2000/svg"
 width="667.000000pt" height="667.000000pt" viewBox="0 0 667.000000 667.000000"
 preserveAspectRatio="xMidYMid meet">
<metadata>
Created by potrace 1.11, written by Peter Selinger 2001-2013
</metadata>
<g transform="translate(0.000000,667.000000) scale(0.100000,-0.100000)"
fill="#000000" stroke="none">
<path d="M3237 6140 c-315 -57 -596 -296 -692 -588 -13 -42 -21 -52 -34 -47
-45 18 -156 35 -234 35 -127 0 -225 -23 -347 -82 -93 -45 -115 -61 -200 -147
-160 -160 -224 -315 -224 -536 1 -144 19 -228 74 -340 70 -141 205 -282 328
-342 29 -14 54 -28 56 -32 2 -3 -68 -5 -156 -3 -191 4 -276 -8 -366 -54 -119
-59 -197 -146 -245 -272 -22 -56 -22 -64 -25 -787 -2 -515 1 -750 9 -798 30
-181 172 -335 354 -383 34 -9 115 -14 248 -14 l197 0 0 -264 c0 -234 2 -271
20 -328 40 -130 151 -247 283 -299 l62 -24 1100 -3 c775 -2 1119 0 1165 8 194
33 349 193 380 390 6 42 10 570 10 1493 0 785 2 1432 5 1436 2 5 20 12 39 15
19 4 67 23 107 43 97 48 176 128 225 229 37 74 39 84 42 188 3 93 1 121 -18
175 -41 121 -133 232 -239 285 -28 15 -51 30 -51 34 -2 77 -13 170 -25 217
-41 160 -158 322 -301 415 -179 117 -425 142 -621 64 l-62 -25 -68 72 c-115
122 -248 202 -414 249 -83 24 -299 35 -382 20z m291 -166 c228 -47 425 -202
518 -410 35 -77 60 -104 96 -104 41 0 63 14 78 50 11 26 9 37 -10 86 -13 31
-19 59 -14 63 39 36 215 60 309 42 231 -43 435 -271 435 -486 0 -57 -8 -64
-75 -65 -46 0 -104 -19 -126 -41 -26 -26 -25 -80 2 -105 19 -17 37 -19 153
-19 127 0 133 -1 184 -30 199 -110 244 -369 91 -526 -64 -65 -136 -98 -242
-109 -100 -10 -141 -26 -195 -75 -77 -69 -86 -101 -92 -345 -6 -244 -7 -246
-88 -322 -55 -51 -99 -68 -182 -68 -95 1 -186 57 -233 145 -19 36 -22 61 -27
255 -5 214 -6 215 -35 268 -51 94 -145 142 -275 142 -94 0 -163 -23 -217 -73
-80 -73 -77 -62 -83 -427 -5 -318 -6 -326 -29 -374 -50 -102 -140 -160 -246
-159 -99 0 -178 48 -233 142 l-27 46 -5 265 c-5 249 -6 268 -27 306 -12 23
-36 56 -54 73 -68 68 -131 83 -279 65 -152 -19 -407 -18 -484 2 -194 50 -355
202 -422 399 -22 66 -27 98 -27 180 -1 174 46 293 164 419 115 123 245 184
409 193 156 8 284 -33 415 -135 70 -54 115 -61 146 -23 20 25 25 72 10 100 -8
13 -99 89 -129 107 -8 5 23 95 52 155 100 202 300 354 527 398 72 14 184 12
267 -5z m380 -1847 l27 -27 6 -208 c4 -177 8 -215 26 -265 42 -113 141 -215
251 -259 45 -18 78 -22 157 -23 97 0 104 1 178 38 46 23 97 58 127 88 l50 50
0 -1114 0 -1115 -28 -53 c-34 -65 -98 -113 -175 -129 -37 -7 -362 -10 -1072
-8 -1010 3 -1020 3 -1065 24 -54 25 -100 69 -126 121 -18 37 -19 85 -22 1396
-2 1290 -1 1357 15 1358 104 2 256 12 330 19 131 14 139 13 175 -19 l33 -29 5
-269 c5 -266 5 -269 32 -326 59 -126 192 -226 330 -249 220 -36 446 126 488
351 5 29 10 178 10 330 0 239 2 280 16 300 26 36 71 52 142 48 52 -2 67 -7 90
-30z m-1930 -1224 l2 -833 -188 0 c-180 0 -191 1 -222 23 -18 12 -43 35 -54
50 -21 28 -21 35 -23 750 l-3 722 23 40 c14 26 37 48 67 63 42 21 55 22 220
20 l175 -3 3 -832z"/>
<path d="M3384 5636 c-62 -15 -114 -46 -150 -89 -71 -84 -98 -214 -52 -257 50
-47 118 -13 136 68 6 23 18 54 27 68 24 37 96 67 141 58 63 -12 124 -80 124
-139 0 -14 11 -37 25 -50 33 -33 78 -33 112 1 23 23 25 31 20 80 -19 183 -201
307 -383 260z"/>
<path d="M2176 5199 c-63 -15 -157 -71 -211 -125 -164 -167 -168 -438 -8 -615
41 -45 80 -56 122 -35 38 20 52 74 27 109 -9 12 -32 44 -51 70 -85 118 -72
252 33 357 123 122 283 120 408 -6 60 -61 93 -69 138 -33 35 28 35 80 0 126
-42 55 -139 121 -211 143 -69 21 -177 25 -247 9z"/>
<path d="M4232 5119 c-116 -19 -242 -106 -242 -167 0 -44 9 -61 42 -78 34 -18
61 -12 103 24 113 95 273 77 351 -40 61 -90 53 -190 -22 -278 -24 -28 -45 -59
-45 -68 -4 -62 23 -96 77 -96 32 0 44 8 90 56 156 168 129 437 -57 574 -85 62
-195 89 -297 73z"/>
<path d="M4221 3014 c0 -11 3 -14 6 -6 3 7 2 16 -1 19 -3 4 -6 -2 -5 -13z"/>
<path d="M4205 1750 c0 -217 1 -306 2 -197 2 108 2 286 0 395 -1 108 -2 19 -2
-198z"/>
</g>
</svg>
